<svg xmlns="http://www.w3.org/2000/svg" width="250" height="250" viewBox="0 0 250 250">
<!-- SVG created with Arrow, by QuiverAI (https://quiver.ai) -->
  <path d="m125.6 54-23.84 40.48 13.4-5.6v50.02h21.22v-50.02l13.4 5.6-23.84-40.3-0.34-0.18z" fill="#263238"/>
  <path d="m150.8 83.81 62.7 55.3h-23.58l-21.76-19.49-17.36-35.81z" fill="#52616B"/>
  <path d="m143.7 100 16.1 14.2v24.69h-16.1v-38.89z" fill="#52616B"/>
  <path d="m100.8 83.62-63.68 55.49h24.3l22.59-19.49 16.79-36z" fill="#0069B4"/>
  <path d="m107.7 99.71-16.1 14.5v24.69h16.1v-39.19z" fill="#0069B4"/>
  <path d="m4.01 164.9h5.88l9.86 16.41 11.66-16.41h5.57v29.4h-5.69v-19.69l-11.54 17.09-10.27-17.09v19.69h-5.48v-29.4h0.01z" fill="#0069B4"/>
  <path d="m54.68 164.9h6.49l12.42 29.4h-6.21l-2.87-6.67h-13.57l-2.87 6.67h-6.25l12.86-29.4zm7.66 17.82-4.87-11.5-4.75 11.5h9.62z" fill="#0069B4"/>
  <path d="m88.18 164.9h6.49l12.96 29.4h-6.21l-2.87-6.67h-13.57l-2.87 6.67h-7.38l13.45-29.4zm8.21 17.82-5.71-11.5-4.46 11.5h10.17z" fill="#0069B4"/>
  <path d="m120.5 178.6-11.13-13.73h8.33l7.38 9.36 7.33-9.36h7.86l-11.49 13.9 12.47 15.5h-8.17l-8.37-10.79-7.99 10.79h-8.33l12.11-15.67z" fill="#0069B4"/>
  <path d="m143.5 179.5c0-9.27 6.4-15.15 18.7-15.15 4.5 0 8.02 0.79 10.32 1.84v5.25c-2.79-1.17-5.9-2.09-10.07-2.09-8.73 0-12.72 4.37-12.72 10.06 0 6.25 4.03 9.95 12.09 9.95 2.88 0 5.18-0.5 7.27-1.17v-5.89h-6.77v-4.41h12.17v14.81c-2.26 0.92-6.84 2.13-12.54 2.13-11.66 0-18.45-5.12-18.45-15.33z" fill="#3C4E5C"/>
  <path d="m182.4 164.9h25.29v4.88h-19.8v6.84h17.28v4.88h-17.28v7.92h20.01v4.88h-25.5v-29.4z" fill="#3C4E5C"/>
  <path d="m214.4 164.9h6.62l18.85 20.81v-20.81h6.29v29.4h-6.29l-18.35-21.4v21.4h-7.12v-29.4z" fill="#3C4E5C"/>
</svg>